<svg id="Camada_1" data-name="Camada 1" xmlns="http://www.w3.org/2000/svg" viewBox="0 0 1016.52 311.29"><defs><style>.cls-1{fill:#ad2731;}.cls-2{fill:#346389;}.cls-3{font-size:50.44px;font-family:Corbel-Bold, Corbel;font-weight:700;letter-spacing:0.63em;}.cls-4{letter-spacing:0.62em;}.cls-5{letter-spacing:0.62em;}.cls-6{letter-spacing:0.59em;}.cls-7{letter-spacing:0.63em;}</style></defs><path class="cls-1" d="M212.64,117.33A14.82,14.82,0,0,1,214,110.9a13.17,13.17,0,0,1,3.58-4.62,15.59,15.59,0,0,1,5.11-2.73,18.78,18.78,0,0,1,11.55,0,14.91,14.91,0,0,1,5,2.71,13.59,13.59,0,0,1,3.53,4.44,14.58,14.58,0,0,1,1.45,6.25l0,10.47a46.49,46.49,0,0,1,7.09-10.17A44.26,44.26,0,0,1,262,108.48,52.46,52.46,0,0,1,275,103.1a55.38,55.38,0,0,1,32.15,1.21,40.83,40.83,0,0,1,15,9.26,44.2,44.2,0,0,1,10.27,16q3.78,9.75,3.73,23.18l-.3,69.54a15.14,15.14,0,0,1-1.37,6.57,14.6,14.6,0,0,1-3.58,4.76,14.45,14.45,0,0,1-5.11,2.86,19,19,0,0,1-5.85.92,17.41,17.41,0,0,1-5.7-1,14.64,14.64,0,0,1-8.49-7.69,15.1,15.1,0,0,1-1.32-6.58l.3-69.82a37.48,37.48,0,0,0-2.09-13.3,27.59,27.59,0,0,0-5.73-9.42,22.89,22.89,0,0,0-8.44-5.61,28.78,28.78,0,0,0-10.2-1.85A38.17,38.17,0,0,0,265,124.4a29.77,29.77,0,0,0-10.83,6.87,35.29,35.29,0,0,0-7.37,10.64q-2.7,6-2.75,15.43l-.27,64.58a15.14,15.14,0,0,1-1.37,6.57,14.71,14.71,0,0,1-3.58,4.76,14.45,14.45,0,0,1-5.11,2.86,18.7,18.7,0,0,1-5.85.91,17.77,17.77,0,0,1-5.77-1,14.37,14.37,0,0,1-5-2.91,14.69,14.69,0,0,1-3.54-4.78,15.25,15.25,0,0,1-1.31-6.58Z" transform="translate(-9.74 -44.36)"/><path class="cls-1" d="M427.59,271.67,376,271.51c-14.8-.61-14,24.06-.11,24.62l46.52.16h4.28s23.36-.88,31.61-2.95a57.53,57.53,0,0,0,21.45-10.1A47.34,47.34,0,0,0,494,264.93q5.15-11.31,5.22-27.53l.5-119.3a15.25,15.25,0,0,0-1.25-6.51A13.72,13.72,0,0,0,495,107a14.69,14.69,0,0,0-4.75-2.83,16,16,0,0,0-5.44-1,17.37,17.37,0,0,0-5,.72,14.13,14.13,0,0,0-4.44,2.26,13.08,13.08,0,0,0-5.09,8.56,5,5,0,0,0,0,.67,4,4,0,0,1-7,2.76c-.8-.86-1.63-1.7-2.48-2.53a47.68,47.68,0,0,0-11.37-8.36,48.54,48.54,0,0,0-13-4.55,75.11,75.11,0,0,0-14.29-1.4q-13.83-.06-24.39,5.39a52,52,0,0,0-17.79,15,67.46,67.46,0,0,0-10.9,22.54,98.14,98.14,0,0,0-3.74,26.39,91.24,91.24,0,0,0,3.58,26.9,58.61,58.61,0,0,0,10.92,20.75A51,51,0,0,0,398,232q10.84,5,25.22,5.07a58.77,58.77,0,0,0,13.36-1.48A55.26,55.26,0,0,0,449.26,231a47.62,47.62,0,0,0,11.17-7.87c.6-.56,1.19-1.14,1.76-1.73a4,4,0,0,1,7,2.81L469.09,240q0,9.1-2.95,15.2a24.51,24.51,0,0,1-8.16,9.75,34.49,34.49,0,0,1-12.58,5.24c-4.88,1.05-17.81,1.52-17.81,1.52m38.69-80.32a43.32,43.32,0,0,1-7.78,14.2,31.56,31.56,0,0,1-11.39,8.55,33.68,33.68,0,0,1-13.77,2.83,32.5,32.5,0,0,1-13.41-2.88A29.46,29.46,0,0,1,409,205.48a42.79,42.79,0,0,1-7.26-14.33q-2.64-8.61-2.59-21.23a102.25,102.25,0,0,1,1.69-18,46.25,46.25,0,0,1,5.64-15.62A28.75,28.75,0,0,1,417,126q6.53-3.72,16.46-3.69,10.21,0,17.11,4a30.79,30.79,0,0,1,11,10.78A48.76,48.76,0,0,1,467.52,152a86.17,86.17,0,0,1,1.73,18.6Q469.21,182.85,466.28,191.35Z" transform="translate(-9.74 -44.36)"/><path class="cls-1" d="M658.11,221.13a15.14,15.14,0,0,1-1.37,6.57,13.79,13.79,0,0,1-3.58,4.69,14.86,14.86,0,0,1-5.11,2.8,19,19,0,0,1-5.85.91,18.37,18.37,0,0,1-5.56-.9,14.69,14.69,0,0,1-5-2.7,13.9,13.9,0,0,1-3.54-4.45,14.72,14.72,0,0,1-1.45-6.25l0-10.07a50.49,50.49,0,0,1-7.42,10,46.94,46.94,0,0,1-10.78,8.62,50.93,50.93,0,0,1-13,5.31,55,55,0,0,1-13.9,1.76,53.88,53.88,0,0,1-18-3.1,40.91,40.91,0,0,1-15.06-9.4,44.63,44.63,0,0,1-10.27-16,60.41,60.41,0,0,1-3.73-22.44l.29-70.08a15.2,15.2,0,0,1,1.37-6.57,14.5,14.5,0,0,1,8.63-7.62,18.27,18.27,0,0,1,5.77-.91,19,19,0,0,1,5.84,1,14.54,14.54,0,0,1,5.09,2.91,14.79,14.79,0,0,1,3.54,4.78,15.29,15.29,0,0,1,1.31,6.59l-.3,70.62a35.55,35.55,0,0,0,2.1,12.76,27.19,27.19,0,0,0,5.73,9.42,22.69,22.69,0,0,0,8.43,5.61,28.44,28.44,0,0,0,10.07,1.85,38.85,38.85,0,0,0,12.76-2,29.53,29.53,0,0,0,10.63-6.27,35.52,35.52,0,0,0,7.5-9.77q2.91-5.55,3.48-14.15l.29-67.93a15,15,0,0,1,1.37-6.57,13.79,13.79,0,0,1,3.58-4.69,15.19,15.19,0,0,1,5-2.8,18.3,18.3,0,0,1,11.55,0,15.27,15.27,0,0,1,5,2.84,14.13,14.13,0,0,1,3.54,4.72,15.1,15.1,0,0,1,1.31,6.58Z" transform="translate(-9.74 -44.36)"/><path class="cls-1" d="M697.07,60a15.83,15.83,0,0,1,1.37-6.78A14.54,14.54,0,0,1,702,48.44a15.16,15.16,0,0,1,5.11-2.93,17.7,17.7,0,0,1,5.85-1,17.13,17.13,0,0,1,5.77,1,15.52,15.52,0,0,1,5,3,14.5,14.5,0,0,1,3.53,4.85,15.92,15.92,0,0,1,1.32,6.79L727.93,222a14.9,14.9,0,0,1-10.2,14.52,17.61,17.61,0,0,1-5.84,1,18.06,18.06,0,0,1-5.77-1,13.69,13.69,0,0,1-5-2.91,14.68,14.68,0,0,1-3.46-4.91,16.36,16.36,0,0,1-1.32-6.85Z" transform="translate(-9.74 -44.36)"/><path class="cls-1" d="M848.42,148a29.1,29.1,0,0,0-1.9-11.42,18.7,18.7,0,0,0-5.4-7.4,21.24,21.24,0,0,0-8.38-4.07,45.23,45.23,0,0,0-10.8-1.25,91.54,91.54,0,0,0-12.22.69,73.65,73.65,0,0,0-10.28,2,85.87,85.87,0,0,0-8.94,3c-2.78,1.1-5.51,2.28-8.2,3.52a11,11,0,0,1-4,.79,8.77,8.77,0,0,1-3.55-.76,9.56,9.56,0,0,1-3-2,9.85,9.85,0,0,1-2-3,8.48,8.48,0,0,1-.72-3.43,6.69,6.69,0,0,1,.48-2.62,17.51,17.51,0,0,1,1.42-2.61q6.48-9.65,20.07-13.94t32.77-4.23a83.18,83.18,0,0,1,21.67,2.78,46.2,46.2,0,0,1,17.22,8.6A39.36,39.36,0,0,1,874,127.88q4,9.35,4,22.64l-.31,73.17a14.59,14.59,0,0,1-1.44,6,13.21,13.21,0,0,1-3.37,4.28,14.2,14.2,0,0,1-4.71,2.6,16.42,16.42,0,0,1-10.34,0,13.34,13.34,0,0,1-4.42-2.44,12.38,12.38,0,0,1-3.14-4,13.78,13.78,0,0,1-1.32-5.65l.05-10.07a54.29,54.29,0,0,1-7.5,9.71,43,43,0,0,1-10.64,8.14,52.08,52.08,0,0,1-12.71,4.91,55.65,55.65,0,0,1-13.56,1.63,58.84,58.84,0,0,1-18-2.77A42.47,42.47,0,0,1,772,228.21a35.75,35.75,0,0,1-9.54-12.67,36.25,36.25,0,0,1-3.43-15.45q.06-12.34,5.39-21a39.86,39.86,0,0,1,15.24-14,75.89,75.89,0,0,1,23.86-7.75A183.33,183.33,0,0,1,834.83,155q2.68,0,6.65.1t6.91.23Zm-.24,24.93-2.62.1c-1,0-2.1.06-3.22.05H836a149.94,149.94,0,0,0-16.92.87,57.3,57.3,0,0,0-15.25,3.62,27.68,27.68,0,0,0-11,7.74c-2.84,3.35-4.26,7.7-4.29,13.07a19.61,19.61,0,0,0,2,8.34,20.08,20.08,0,0,0,5.41,7.14,22.87,22.87,0,0,0,8.1,4.26A38.65,38.65,0,0,0,814,219.66a37.45,37.45,0,0,0,13.23-2.5A29.72,29.72,0,0,0,838,210a36,36,0,0,0,7.22-10.91,42.87,42.87,0,0,0,3-15.42Z" transform="translate(-9.74 -44.36)"/><path class="cls-1" d="M910.86,117.77a14.17,14.17,0,0,1,1.44-6.44,13.8,13.8,0,0,1,3.64-4.62,15.69,15.69,0,0,1,5.11-2.73,18.7,18.7,0,0,1,5.85-.91,17.45,17.45,0,0,1,5.5.89,15.73,15.73,0,0,1,4.82,2.57,13.44,13.44,0,0,1,3.54,4.31,13.9,13.9,0,0,1,1.52,6.12c0,.09,0,.67.06,1.75s.06,2.3,0,3.69l0,3.69v1.74A36.85,36.85,0,0,1,954.26,109q8.76-7.41,23.39-7.35a14.78,14.78,0,0,1,6,1.17,13.79,13.79,0,0,1,4.36,2.9,11.63,11.63,0,0,1,2.6,4,13.11,13.11,0,0,1,.85,4.7,13.33,13.33,0,0,1-.89,4.7,11.52,11.52,0,0,1-2.71,4.08,14.06,14.06,0,0,1-4.57,2.94,16.65,16.65,0,0,1-6.39,1.11,41.93,41.93,0,0,0-14.17,2.22,28.11,28.11,0,0,0-10.9,6.87,33.27,33.27,0,0,0-7,10.64q-2.5,6-2.55,15.43L942,222.62a14.21,14.21,0,0,1-1.44,6.51,14.74,14.74,0,0,1-8.76,7.41,19,19,0,0,1-5.84.92,17.47,17.47,0,0,1-5.71-1,15.85,15.85,0,0,1-5-2.77,13.37,13.37,0,0,1-3.54-4.65,15,15,0,0,1-1.31-6.58Z" transform="translate(-9.74 -44.36)"/><path class="cls-1" d="M188.59,216.58,132.53,75.37A97.48,97.48,0,0,0,126,60.24a37.73,37.73,0,0,0-7.14-9.49,22,22,0,0,0-8.37-4.94,34.42,34.42,0,0,0-10.2-1.45,34.87,34.87,0,0,0-10,1.3A21.74,21.74,0,0,0,82,50.39a36.22,36.22,0,0,0-7.22,9.37A100.57,100.57,0,0,0,68,75.1L11,215.83a10.66,10.66,0,0,0-.88,2.88,18.69,18.69,0,0,0-.21,2.75,12.92,12.92,0,0,0,1.51,6.32,16.19,16.19,0,0,0,4,4.85,17.93,17.93,0,0,0,5.69,3.11,19.9,19.9,0,0,0,6.44,1.1l143.93.62a20.87,20.87,0,0,0,6.58-1.05,19.11,19.11,0,0,0,5.79-3.06,15.65,15.65,0,0,0,4.11-4.89,13.55,13.55,0,0,0,1.57-6.5A16.39,16.39,0,0,0,188.59,216.58ZM47.87,211.69l8.58-22,7.48-22.53,35.85-95.3h.54l34.9,95.61,7.29,22.58L151,212.13Z" transform="translate(-9.74 -44.36)"/><path class="cls-1" d="M447.9,273" transform="translate(-9.74 -44.36)"/><path class="cls-1" d="M339.8,308.14" transform="translate(-9.74 -44.36)"/><path class="cls-2" d="M462.69,245.25c-18.88,0-301.55-.08-445.4-.08a7.57,7.57,0,0,0,0,15.13H457.18a12,12,0,0,0,6-7.09A11.8,11.8,0,0,0,462.69,245.25Z" transform="translate(-9.74 -44.36)"/><path class="cls-2" d="M982.88,245.18H501.5a47.52,47.52,0,0,1-2.81,15.13H982.88a7.57,7.57,0,1,0,0-15.13Z" transform="translate(-9.74 -44.36)"/><text class="cls-3" transform="translate(0 299.17)">M<tspan class="cls-4" x="73.19" y="0">Ó</tspan><tspan class="cls-5" x="141.26" y="0">VEIS E</tspan><tspan class="cls-6" x="473.25" y="0"> </tspan><tspan class="cls-7" x="513.2" y="0">CO</tspan><tspan class="cls-6" x="642.76" y="0">L</tspan><tspan class="cls-7" x="699.42" y="0">CHOES</tspan></text></svg>