<svg xmlns="http://www.w3.org/2000/svg" viewBox="0 0 1632.29 485.96"><defs><style>.cls-1{fill:#c1272d;}.cls-2{fill:#ad2731;}.cls-3{fill:#346389;}.cls-4{font-size:60px;font-family:Corbel-Bold, Corbel;font-weight:700;letter-spacing:0.63em;}.cls-5{letter-spacing:0.62em;}.cls-6{letter-spacing:0.59em;}</style></defs><g id="Camada_1" data-name="Camada 1"><path class="cls-1" d="M-220.65,904.88" transform="translate(-18 -355.1)"/><path class="cls-2" d="M259.38,441.91a17.56,17.56,0,0,1,1.63-7.66,15.71,15.71,0,0,1,4.25-5.49,18.66,18.66,0,0,1,6.09-3.25,22.45,22.45,0,0,1,6.95-1.08,22,22,0,0,1,6.78,1.06,17.94,17.94,0,0,1,5.9,3.22,16.52,16.52,0,0,1,4.21,5.29,17.57,17.57,0,0,1,1.72,7.43l-.05,12.46a55.21,55.21,0,0,1,8.44-12.1A52.18,52.18,0,0,1,318,431.38a62.43,62.43,0,0,1,15.52-6.4,65.78,65.78,0,0,1,38.25,1.44,48.45,48.45,0,0,1,17.84,11,52.42,52.42,0,0,1,12.22,19.05q4.5,11.61,4.43,27.57L406,566.8a18,18,0,0,1-1.63,7.82,17.31,17.31,0,0,1-4.26,5.65,17.1,17.1,0,0,1-6.08,3.41,22.47,22.47,0,0,1-7,1.09,21,21,0,0,1-6.79-1.15,17.39,17.39,0,0,1-10.1-9.15,18,18,0,0,1-1.56-7.83l.35-83.05a44.41,44.41,0,0,0-2.49-15.83,32.58,32.58,0,0,0-6.82-11.21,27.12,27.12,0,0,0-10-6.67,34.19,34.19,0,0,0-12.13-2.2,45.36,45.36,0,0,0-15.83,2.64,35.41,35.41,0,0,0-12.89,8.17A41.78,41.78,0,0,0,300,471.16q-3.23,7.17-3.27,18.35l-.32,76.82a18,18,0,0,1-1.64,7.82,17.32,17.32,0,0,1-4.25,5.65,17,17,0,0,1-6.09,3.41,22.17,22.17,0,0,1-7,1.09,21.42,21.42,0,0,1-6.86-1.15,17.21,17.21,0,0,1-6-3.45,17.42,17.42,0,0,1-4.2-5.69,18,18,0,0,1-1.57-7.84Z" transform="translate(-18 -355.1)"/><path class="cls-2" d="M515.09,625.52l-61.42-.2c-17.61-.71-16.67,28.63-.13,29.3l55.34.19H514s27.79-1.06,37.6-3.51a68.53,68.53,0,0,0,25.53-12A56.49,56.49,0,0,0,594,617.5q6.12-13.46,6.21-32.75l.6-141.93a18.34,18.34,0,0,0-1.48-7.74,16.61,16.61,0,0,0-4-5.52,17.68,17.68,0,0,0-5.66-3.37,18.86,18.86,0,0,0-6.46-1.14,20,20,0,0,0-5.92.85,16.29,16.29,0,0,0-5.28,2.69,15.94,15.94,0,0,0-4,4.44,15.67,15.67,0,0,0-2,5.74,5.25,5.25,0,0,0-.06.79,4.82,4.82,0,0,1-8.32,3.29c-1-1-1.94-2-2.94-3a56.1,56.1,0,0,0-29-15.35,90.15,90.15,0,0,0-17-1.67q-16.46-.06-29,6.42a61.82,61.82,0,0,0-21.16,17.85,80.28,80.28,0,0,0-13,26.82A116.22,116.22,0,0,0,441,505.3a108.43,108.43,0,0,0,4.25,32,69.67,69.67,0,0,0,13,24.69,60.72,60.72,0,0,0,21.58,16.36q12.91,6,30,6a70.33,70.33,0,0,0,15.9-1.77,65.79,65.79,0,0,0,15.12-5.44,56.61,56.61,0,0,0,13.29-9.35c.71-.67,1.41-1.36,2.09-2.06a4.81,4.81,0,0,1,8.29,3.34l-.08,18.7q0,10.85-3.51,18.09a29.34,29.34,0,0,1-9.71,11.6,41.06,41.06,0,0,1-15,6.23c-5.81,1.25-21.19,1.81-21.19,1.81m46-95.55a51.29,51.29,0,0,1-9.26,16.89A37.44,37.44,0,0,1,538.32,557a40,40,0,0,1-16.39,3.36A38.61,38.61,0,0,1,506,557a35.11,35.11,0,0,1-13-10.2,50.49,50.49,0,0,1-8.63-17q-3.17-10.23-3.09-25.24a121,121,0,0,1,2-21.4A54.89,54.89,0,0,1,490,464.5a34.43,34.43,0,0,1,12.51-12.32q7.77-4.44,19.59-4.39,12.13,0,20.34,4.8a36.42,36.42,0,0,1,13.12,12.83,57.54,57.54,0,0,1,7,17.76,102.47,102.47,0,0,1,2.06,22.13Q564.59,519.85,561.11,530Z" transform="translate(-18 -355.1)"/><path class="cls-2" d="M789.32,565.39a17.87,17.87,0,0,1-1.63,7.82,16.63,16.63,0,0,1-4.25,5.58,17.75,17.75,0,0,1-6.09,3.32,22.17,22.17,0,0,1-7,1.09,21.87,21.87,0,0,1-6.62-1.06,17.76,17.76,0,0,1-5.9-3.22,16.52,16.52,0,0,1-4.21-5.29,17.43,17.43,0,0,1-1.72-7.44l0-12a59.82,59.82,0,0,1-8.84,11.95,55.61,55.61,0,0,1-12.82,10.24,60.26,60.26,0,0,1-15.44,6.33,65.19,65.19,0,0,1-37.93-1.6A48.87,48.87,0,0,1,659.05,570a53.3,53.3,0,0,1-12.21-19.06q-4.51-11.52-4.44-26.69l.35-83.37a18,18,0,0,1,1.63-7.82A17.25,17.25,0,0,1,654.64,424a21.46,21.46,0,0,1,6.87-1.09,22.2,22.2,0,0,1,7,1.15,17.09,17.09,0,0,1,6,3.46,17.44,17.44,0,0,1,4.21,5.68,18.05,18.05,0,0,1,1.56,7.84l-.35,84a42.12,42.12,0,0,0,2.49,15.18,32.49,32.49,0,0,0,6.82,11.21,26.88,26.88,0,0,0,10,6.67,33.78,33.78,0,0,0,12,2.21,46.35,46.35,0,0,0,15.19-2.41,35.37,35.37,0,0,0,12.65-7.45A42.44,42.44,0,0,0,748,538.78q3.46-6.6,4.14-16.83l.35-80.82a17.86,17.86,0,0,1,1.63-7.81,16.53,16.53,0,0,1,4.25-5.58,18.15,18.15,0,0,1,6-3.33,21.78,21.78,0,0,1,13.73.06,17.93,17.93,0,0,1,6,3.38,16.64,16.64,0,0,1,4.21,5.61,18.12,18.12,0,0,1,1.56,7.83Z" transform="translate(-18 -355.1)"/><path class="cls-2" d="M835.67,373.75a18.85,18.85,0,0,1,1.63-8.06,17.12,17.12,0,0,1,4.26-5.73,18.09,18.09,0,0,1,6.08-3.49,20.92,20.92,0,0,1,7-1.17,20.32,20.32,0,0,1,6.87,1.23,18.38,18.38,0,0,1,6,3.54,17.19,17.19,0,0,1,4.21,5.77,18.9,18.9,0,0,1,1.56,8.07l-.81,192.46a17.72,17.72,0,0,1-12.14,17.27,20.92,20.92,0,0,1-7,1.17,21.69,21.69,0,0,1-6.86-1.14,16.51,16.51,0,0,1-5.9-3.46,17.54,17.54,0,0,1-4.13-5.85,19.63,19.63,0,0,1-1.56-8.15Z" transform="translate(-18 -355.1)"/><path class="cls-2" d="M1015.72,478.36a34.75,34.75,0,0,0-2.25-13.58A22.29,22.29,0,0,0,1007,456a25.38,25.38,0,0,0-10-4.84,53.9,53.9,0,0,0-12.85-1.49,109.9,109.9,0,0,0-14.54.82,86.94,86.94,0,0,0-12.22,2.42,102,102,0,0,0-10.64,3.55q-5,2-9.76,4.19a13,13,0,0,1-4.8.94,10.49,10.49,0,0,1-4.23-.9,11.45,11.45,0,0,1-5.88-5.93,10,10,0,0,1-.86-4.08,8,8,0,0,1,.57-3.11,21.16,21.16,0,0,1,1.69-3.11q7.71-11.46,23.87-16.59t39-5a98.91,98.91,0,0,1,25.78,3.3,54.9,54.9,0,0,1,20.48,10.23,46.87,46.87,0,0,1,13.42,18.1q4.83,11.13,4.76,26.94l-.37,87a17.42,17.42,0,0,1-1.71,7.18,15.91,15.91,0,0,1-4,5.1,16.87,16.87,0,0,1-5.6,3.09,19.94,19.94,0,0,1-6.32,1,19.5,19.5,0,0,1-6-1,16,16,0,0,1-5.26-2.9,14.65,14.65,0,0,1-3.73-4.81,16.29,16.29,0,0,1-1.57-6.71l.05-12a64,64,0,0,1-8.92,11.54,51.46,51.46,0,0,1-12.65,9.69,62.43,62.43,0,0,1-15.12,5.84,65.86,65.86,0,0,1-16.14,1.93,70.23,70.23,0,0,1-21.47-3.28,50.63,50.63,0,0,1-17.21-9.34,44.33,44.33,0,0,1-15.43-33.45q.06-14.68,6.41-25a47.5,47.5,0,0,1,18.12-16.69q11.77-6.42,28.39-9.22a219.08,219.08,0,0,1,37.23-2.72q3.2,0,7.9.11t8.23.28Zm-.28,29.66-3.12.12c-1.22.05-2.5.07-3.83.06l-4,0h-3.6a183.64,183.64,0,0,0-20.13,1,68,68,0,0,0-18.14,4.32,32.84,32.84,0,0,0-13.14,9.2q-5.06,6-5.09,15.55a23.21,23.21,0,0,0,2.35,9.92,24,24,0,0,0,6.43,8.49,27.32,27.32,0,0,0,9.64,5.07,41.24,41.24,0,0,0,27.72-1.08,35.25,35.25,0,0,0,12.73-8.49,42.53,42.53,0,0,0,8.6-13q3.15-7.34,3.51-18.35Z" transform="translate(-18 -355.1)"/><path class="cls-2" d="M1090,442.43a17,17,0,0,1,1.71-7.66,16.66,16.66,0,0,1,4.34-5.49,18.43,18.43,0,0,1,6.08-3.25,22.17,22.17,0,0,1,6.95-1.09,21.13,21.13,0,0,1,6.55,1.06,18.91,18.91,0,0,1,5.73,3.06,16.05,16.05,0,0,1,4.22,5.13,16.54,16.54,0,0,1,1.8,7.28c0,.1,0,.8.07,2.07s.07,2.75.06,4.4l0,4.39v2.08A43.8,43.8,0,0,1,1141.64,432q10.41-8.82,27.82-8.74a17.58,17.58,0,0,1,7.11,1.39,16.59,16.59,0,0,1,5.17,3.45,13.58,13.58,0,0,1,3.1,4.81,15.61,15.61,0,0,1,0,11.18,13.68,13.68,0,0,1-3.22,4.85,16.46,16.46,0,0,1-5.44,3.5,19.86,19.86,0,0,1-7.59,1.32,49.89,49.89,0,0,0-16.87,2.64,33.59,33.59,0,0,0-13,8.17,39.76,39.76,0,0,0-8.36,12.67q-3,7.17-3,18.35l-.3,71.56a16.92,16.92,0,0,1-1.71,7.73,17.91,17.91,0,0,1-4.34,5.5,17.7,17.7,0,0,1-6.08,3.32,22.22,22.22,0,0,1-7,1.09,21,21,0,0,1-6.79-1.14,19.06,19.06,0,0,1-5.89-3.3,15.74,15.74,0,0,1-4.21-5.53,18,18,0,0,1-1.57-7.83Z" transform="translate(-18 -355.1)"/><path class="cls-2" d="M230.76,560,164.07,392a115.85,115.85,0,0,0-7.75-18,44.72,44.72,0,0,0-8.5-11.29,26.16,26.16,0,0,0-9.95-5.87,40.89,40.89,0,0,0-12.13-1.73,41.81,41.81,0,0,0-11.91,1.54,26,26,0,0,0-9.93,5.63,43.38,43.38,0,0,0-8.59,11.15,120.89,120.89,0,0,0-8.06,18.25L19.46,559.09a12.73,12.73,0,0,0-1.06,3.43,23,23,0,0,0-.25,3.27A15.41,15.41,0,0,0,20,573.3a19.16,19.16,0,0,0,4.77,5.77,21.28,21.28,0,0,0,6.77,3.71,24.18,24.18,0,0,0,7.66,1.31l171.22.72a24.66,24.66,0,0,0,7.83-1.24,22.42,22.42,0,0,0,6.89-3.65,18.38,18.38,0,0,0,4.89-5.8,16.22,16.22,0,0,0,1.87-7.74A19.44,19.44,0,0,0,230.76,560ZM63.35,554.17,73.57,528l8.9-26.79,42.65-113.38h.64l41.52,113.74L176,528.45,186,554.69Z" transform="translate(-18 -355.1)"/><path class="cls-2" d="M539.24,627.13" transform="translate(-18 -355.1)"/><path class="cls-2" d="M410.65,668.9" transform="translate(-18 -355.1)"/><text x="-18" y="-355.1"/><path class="cls-1" d="M436.88-83" transform="translate(-18 -355.1)"/></g><g id="Camada_2" data-name="Camada 2"><path class="cls-3" d="M556.84,594.09c-22.45,0-358.73-.1-529.86-.1a9,9,0,0,0,0,18h523.3a14.34,14.34,0,0,0,7.15-8.44A14,14,0,0,0,556.84,594.09Z" transform="translate(-18 -355.1)"/><path class="cls-3" d="M1175.68,594H603a56.75,56.75,0,0,1-3.34,18h576a9,9,0,0,0,0-18Z" transform="translate(-18 -355.1)"/></g><g id="Camada_5" data-name="Camada 5"><text class="cls-4" transform="translate(0 355.9)">M<tspan class="cls-5" x="87.07" y="0">Ó</tspan><tspan x="168.05" y="0">VEIS E</tspan><tspan class="cls-6" x="563" y="0"> </tspan><tspan x="610.52" y="0">CO</tspan><tspan class="cls-6" x="764.65" y="0">L</tspan><tspan x="832.06" y="0">CHOES</tspan></text></g></svg>